<svg width="16" height="16" viewBox="0 0 16 16" fill="none" xmlns="http://www.w3.org/2000/svg">
<path d="M1.22178 15.0586H4.30589V5.07422H1.22178V15.0586Z" fill="black"/>
<path d="M0.941406 1.88672C0.941406 2.87109 1.7358 3.66797 2.76384 3.66797C3.74514 3.66797 4.53954 2.87109 4.53954 1.88672C4.53954 0.902344 3.74514 0.0585938 2.76384 0.0585938C1.7358 0.0585938 0.941406 0.902344 0.941406 1.88672Z" fill="black"/>
<path d="M12.8106 15.0586H15.9414V9.57422C15.9414 6.90234 15.3339 4.79297 12.2031 4.79297C10.7078 4.79297 9.67972 5.63672 9.25916 6.43359H9.21243V5.07422H6.26851V15.0586H9.35262V10.1367C9.35262 8.82422 9.58627 7.55859 11.2218 7.55859C12.8106 7.55859 12.8106 9.05859 12.8106 10.1836V15.0586Z" fill="black"/>
</svg>
